<mxfile host="app.diagrams.net" modified="2023-09-05T11:43:02.118Z" agent="Mozilla/5.0 (Macintosh; Intel Mac OS X 10_15_7) AppleWebKit/537.36 (KHTML, like Gecko) Chrome/116.0.0.0 Safari/537.36" version="21.7.2" etag="C7wqukYhjkmU19rmeUo8" type="github">
  <diagram name="Page-1" id="6ZD72X9NXAFBk27922i6">
    <mxGraphModel>
      <root>
        <mxCell id="0" />
        <mxCell id="1" parent="0" />
      </root>
    </mxGraphModel>
  </diagram>
</mxfile>
